<svg version="1.1" id="Layer_1" xmlns="http://www.w3.org/2000/svg" xmlns:xlink="http://www.w3.org/1999/xlink" x="0px" y="0px"
	 width="100%" viewBox="0 0 512 512" enable-background="new 0 0 512 512" xml:space="preserve">
<path fill="#FFFFFF" opacity="1.000000" stroke="none" 
	d="
M353.000000,481.000000 
	C277.515594,481.000000 202.530838,480.867950 127.547081,481.088715 
	C107.707115,481.147095 89.956398,475.387543 73.840256,464.278381 
	C52.543884,449.598419 39.891190,429.027588 34.108177,404.081787 
	C33.193493,400.136230 33.046272,395.944214 33.043613,391.865814 
	C32.986256,303.884155 33.127102,215.902145 32.903561,127.921013 
	C32.852703,107.905403 38.562328,90.007355 49.802727,73.746124 
	C64.516724,52.459717 85.078903,39.823341 110.044724,34.108437 
	C114.152451,33.168137 118.514900,33.046204 122.759949,33.043476 
	C212.241272,32.985992 301.722656,32.981880 391.204041,33.017319 
	C406.639832,33.023430 420.847137,37.949829 433.916107,45.594460 
	C451.025360,55.602463 464.015076,69.769051 472.389282,87.884666 
	C477.660065,99.286842 481.029480,111.155540 481.023071,123.882263 
	C480.979095,211.030762 480.863617,298.179657 481.100647,385.327545 
	C481.156464,405.849457 475.426147,424.134521 463.719482,440.818420 
	C448.922455,461.906586 428.500946,474.312378 403.705353,479.890076 
	C399.275177,480.886597 394.572815,480.901733 389.991455,480.953400 
	C377.828979,481.090607 365.664001,481.000000 353.000000,481.000000 
M266.196289,135.526489 
	C266.363434,135.744125 266.575714,135.900406 266.988647,136.841309 
	C267.277802,139.932877 267.817841,143.024307 267.819519,146.116028 
	C267.865387,229.679657 267.862671,313.243286 267.827148,396.806946 
	C267.825989,399.536407 267.396301,402.265656 267.070923,405.537445 
	C267.380188,405.627136 267.689423,405.716827 268.926605,405.948181 
	C277.949677,405.900970 286.972717,405.853729 296.542145,405.927887 
	C296.649078,405.618500 296.756012,405.309113 297.028931,404.075470 
	C297.033447,306.878479 297.038605,209.681488 297.035065,112.484497 
	C297.035004,111.324409 296.922913,110.164330 296.959839,108.453606 
	C296.640472,108.366905 296.321106,108.280197 295.073761,108.051819 
	C269.383911,108.099045 243.694077,108.146271 217.457886,108.072136 
	C217.350952,108.381500 217.244019,108.690872 216.971085,109.924500 
	C216.971085,118.552048 216.971085,127.179588 216.971085,135.175644 
	C233.584961,135.175644 249.794922,135.175644 266.196289,135.526489 
z"/>
<path fill="#000000" opacity="1.000000" stroke="none" 
	d="
M218.004227,108.193497 
	C243.694077,108.146271 269.383911,108.099045 295.634857,108.301659 
	C296.375061,108.766212 296.597443,108.917130 296.863129,109.004242 
	C296.922913,110.164330 297.035004,111.324409 297.035065,112.484497 
	C297.038605,209.681488 297.033447,306.878479 296.762268,404.626038 
	C296.259552,405.331451 296.092926,405.541443 295.995789,405.806519 
	C286.972717,405.853729 277.949677,405.900970 268.369629,405.700378 
	C267.640259,405.239319 267.424835,405.086823 267.166412,404.995026 
	C267.396301,402.265656 267.825989,399.536407 267.827148,396.806946 
	C267.862671,313.243286 267.865387,229.679657 267.819519,146.116028 
	C267.817841,143.024307 267.277802,139.932877 266.959534,136.148743 
	C266.621887,135.362671 266.313385,135.269165 266.004883,135.175644 
	C249.794922,135.175644 233.584961,135.175644 216.971085,135.175644 
	C216.971085,127.179588 216.971085,118.552048 217.237747,109.373947 
	C217.740494,108.668556 217.907104,108.458588 218.004227,108.193497 
z"/>
</svg>