<svg version="1.1" id="Layer_1" xmlns="http://www.w3.org/2000/svg" xmlns:xlink="http://www.w3.org/1999/xlink" x="0px" y="0px"
	 width="100%" viewBox="0 0 512 512" enable-background="new 0 0 512 512" xml:space="preserve">
<path fill="#000000" opacity="1.000000" stroke="none" 
	d="
M513.000000,367.000000 
	C513.000000,415.655304 513.000000,464.310638 513.000000,512.982971 
	C342.384491,512.982971 171.769012,512.982971 1.076753,512.982971 
	C1.076753,342.424347 1.076753,171.848648 1.076753,1.136476 
	C171.666595,1.136476 342.333282,1.136476 513.000000,1.136476 
	C513.000000,57.760967 513.000000,114.414452 512.809814,171.254181 
	C511.576019,169.147186 510.583557,166.464996 507.481323,166.887711 
	C504.661255,167.271988 502.860962,169.361374 501.914917,172.059158 
	C501.585327,172.999100 501.210602,173.951172 501.077393,174.927826 
	C498.985992,190.262421 493.892944,205.005661 496.696899,221.190796 
	C499.615875,238.039703 501.457092,255.078537 505.638977,271.721161 
	C507.595398,279.507141 508.044678,287.192261 506.961365,295.370758 
	C505.443909,306.826630 500.844391,317.092560 497.188507,327.748718 
	C495.455780,332.799255 495.720978,337.634094 496.477600,342.898438 
	C497.738068,351.667969 503.561157,358.171539 506.507599,366.049438 
	C507.707550,369.257690 510.453918,369.208771 513.000000,367.000000 
M296.499817,480.626404 
	C328.157928,480.624847 359.816040,480.624573 391.474152,480.618103 
	C393.139618,480.617767 394.831848,480.747864 396.466522,480.508850 
	C423.131042,476.609772 445.294922,464.679810 461.615417,442.992004 
	C474.041687,426.479279 480.703278,407.900452 480.676758,386.953247 
	C480.565430,298.976685 480.631531,210.999893 480.628021,123.023178 
	C480.627960,121.024422 480.800629,118.991676 480.508545,117.032036 
	C476.588837,90.731689 464.668427,68.951706 443.412170,52.707752 
	C426.667480,39.911465 407.782745,33.292629 386.506134,33.321354 
	C298.696198,33.439896 210.886032,33.380009 123.075951,33.395657 
	C120.913399,33.396042 118.718376,33.292984 116.593307,33.607979 
	C93.046745,37.098186 72.876839,47.225483 57.108768,65.167198 
	C42.517197,81.770226 33.540264,101.123047 33.478745,123.481773 
	C33.233486,212.624176 33.376850,301.767639 33.379631,390.910706 
	C33.379688,392.743103 33.215721,394.604462 33.471172,396.403595 
	C37.295696,423.339874 49.646992,445.496918 71.445503,461.869476 
	C88.246628,474.488556 107.215820,480.840424 128.544510,480.726379 
	C184.194855,480.428802 239.847855,480.626221 296.499817,480.626404 
z"/>
<path fill="#000000" opacity="1.000000" stroke="none" 
	d="
M513.000000,299.531342 
	C509.144897,288.951355 509.995880,277.853210 512.825073,266.368042 
	C513.000000,277.020905 513.000000,288.041779 513.000000,299.531342 
z"/>
<path fill="#000000" opacity="1.000000" stroke="none" 
	d="
M329.566772,256.545166 
	C314.132904,275.941193 295.897980,292.107056 278.392975,308.979492 
	C255.239944,331.295807 232.005020,353.527161 208.822464,375.812897 
	C207.644501,376.945282 206.628677,378.246338 205.371262,379.654968 
	C207.384430,381.682220 209.648956,380.895630 211.634460,380.898376 
	C255.458847,380.958984 299.283295,380.957977 343.107758,380.981781 
	C351.310486,380.986237 351.318909,381.012146 351.322266,389.353699 
	C351.324371,394.519165 351.247803,399.685089 351.300262,404.849884 
	C351.330048,407.780609 349.978149,409.154205 347.084656,409.122314 
	C345.918854,409.109467 344.752411,409.168945 343.586273,409.169128 
	C285.264740,409.178223 226.943222,409.188507 168.621689,409.185974 
	C161.239914,409.185669 161.889755,408.873322 160.860291,401.661621 
	C158.769714,387.016327 164.661102,377.173401 175.277039,367.220795 
	C214.411575,330.531372 252.665955,292.899170 291.042450,255.407715 
	C301.438721,245.251236 310.272522,233.804688 316.380798,220.376633 
	C330.721558,188.850845 318.294220,143.529846 272.593445,134.498047 
	C252.802185,130.586700 233.633545,132.916733 217.274384,146.255005 
	C203.862152,157.190582 198.111053,172.234238 195.338562,188.763412 
	C194.563919,193.381653 194.199448,198.012955 194.204544,202.680283 
	C194.208115,205.932205 192.913498,207.505920 189.403442,207.419739 
	C182.242569,207.243942 175.073807,207.303543 167.909714,207.388031 
	C165.019089,207.422119 163.561050,206.389923 163.685730,203.328674 
	C165.143814,167.527161 175.863739,136.437836 208.708511,117.207321 
	C225.875610,107.156044 244.816727,104.311523 264.537109,105.366928 
	C283.289032,106.370499 300.657990,111.454491 315.890228,122.546616 
	C341.235138,141.002838 352.499268,166.389114 352.562744,197.460571 
	C352.609131,220.175247 343.658875,239.098251 329.566772,256.545166 
z"/>
</svg>