<svg version="1.1" id="Layer_1" xmlns="http://www.w3.org/2000/svg" xmlns:xlink="http://www.w3.org/1999/xlink" x="0px" y="0px"
	 width="100%" viewBox="0 0 512 512" enable-background="new 0 0 512 512" xml:space="preserve">
<path fill="#000000" opacity="1.000000" stroke="none" 
	d="
M513.000000,288.000000 
	C513.000000,362.983124 513.000000,437.966278 513.000000,512.974731 
	C342.388580,512.974731 171.777130,512.974731 1.082850,512.974731 
	C1.082850,342.426971 1.082850,171.853897 1.082850,1.140406 
	C171.666595,1.140406 342.333282,1.140406 513.000000,1.140406 
	C513.000000,54.091953 513.000000,107.079941 512.722534,160.320374 
	C507.866577,158.410156 505.242676,159.336395 501.343140,164.594284 
	C490.818298,178.785126 487.681427,195.463837 486.001129,212.403702 
	C484.756104,224.955093 487.104614,237.104828 491.958740,248.940018 
	C496.492493,259.994019 499.795776,271.547974 503.837677,282.811188 
	C505.138397,286.435791 506.258636,290.521698 511.195404,291.615479 
	C511.844330,290.315369 512.422180,289.157684 513.000000,288.000000 
M298.499817,480.625061 
	C329.490997,480.623352 360.482147,480.622864 391.473328,480.616425 
	C393.138855,480.616089 394.830994,480.749084 396.465912,480.511414 
	C423.142120,476.633850 445.281860,464.666077 461.611084,442.993469 
	C474.050110,426.484100 480.697296,407.895477 480.672638,386.954987 
	C480.569000,298.979645 480.631775,211.004105 480.628998,123.028641 
	C480.628937,121.029869 480.801910,118.997093 480.509796,117.037476 
	C476.589752,90.738174 464.671173,68.960114 443.417389,52.711525 
	C426.671661,39.909313 407.777252,33.299763 386.510010,33.326412 
	C298.700165,33.436455 210.890121,33.384129 123.080139,33.401890 
	C120.917831,33.402328 118.723297,33.306763 116.598175,33.622257 
	C93.051224,37.118095 72.879456,47.243095 57.105289,65.184914 
	C42.507435,81.788788 33.539402,101.142014 33.478207,123.502388 
	C33.234257,212.644684 33.376682,301.788025 33.379410,390.931000 
	C33.379467,392.763397 33.216881,394.624573 33.471920,396.423889 
	C37.290318,423.362640 49.645515,445.521454 71.442207,461.890503 
	C88.241409,474.506470 107.217316,480.842285 128.545258,480.728668 
	C184.862030,480.428680 241.181427,480.625732 298.499817,480.625061 
z"/>
<path fill="#000000" opacity="1.000000" stroke="none" 
	d="
M189.874207,142.047729 
	C203.776001,115.240547 226.150742,103.150536 255.379410,102.628815 
	C282.141998,102.151115 305.052094,110.971909 319.644257,134.070786 
	C336.256317,160.367096 338.010651,188.142746 321.909210,215.800751 
	C318.362274,221.893448 313.091370,226.619217 307.826141,231.260330 
	C306.483643,232.443680 304.751282,233.294907 304.110596,235.092880 
	C304.273132,236.831177 305.739258,237.180557 306.839935,237.801132 
	C346.434387,260.125488 358.999176,300.081207 349.100739,340.919983 
	C339.118225,382.105652 302.309540,410.997986 259.924927,411.439484 
	C230.809647,411.742798 205.549408,402.669556 185.685196,380.810730 
	C172.250458,366.027008 165.332504,348.206177 162.703537,328.589447 
	C162.283951,325.458435 161.891190,322.309601 161.757217,319.157501 
	C161.483688,312.721283 161.603165,312.645813 167.841110,312.601196 
	C173.340744,312.561829 178.840881,312.575409 184.340744,312.587402 
	C192.111725,312.604370 192.052063,312.615204 192.339783,320.220917 
	C192.689133,329.455780 194.567459,338.403687 198.237869,346.881897 
	C208.362686,370.268890 227.067200,381.834167 251.714294,383.465973 
	C285.870850,385.727448 312.187561,365.568085 320.015015,332.359863 
	C328.129974,297.932007 306.965393,261.653381 273.579468,253.072052 
	C263.683563,250.528458 253.483994,250.375626 243.310272,250.282715 
	C236.763550,250.222931 236.668854,250.046310 236.641083,243.447388 
	C236.618652,238.114288 236.812561,232.774002 236.591797,227.450119 
	C236.436859,223.713272 237.852234,222.318634 241.540924,222.659714 
	C249.014420,223.350754 256.530762,223.522980 263.918884,222.077377 
	C296.393311,215.723221 306.939850,187.768295 299.602142,161.666077 
	C295.002930,145.305328 284.096863,134.786957 267.463806,131.608749 
	C250.190460,128.308197 234.084412,131.060623 222.296616,145.817612 
	C215.872818,153.859436 213.125946,163.485275 212.374313,173.620193 
	C211.718292,182.465820 211.889130,182.474411 203.275284,182.466599 
	C196.304993,182.460297 189.334702,182.465332 181.832077,182.465332 
	C181.041779,168.062042 184.140915,154.995697 189.874207,142.047729 
z"/>
</svg>