<svg version="1.1" id="Layer_1" xmlns="http://www.w3.org/2000/svg" xmlns:xlink="http://www.w3.org/1999/xlink" x="0px" y="0px"
	 width="100%" viewBox="0 0 512 512" enable-background="new 0 0 512 512" xml:space="preserve">
<path fill="#000000" opacity="1.000000" stroke="none" 
	d="
M306.000000,513.000000 
	C204.024765,513.000000 102.549522,513.000000 1.037143,513.000000 
	C1.037143,342.399750 1.037143,171.799469 1.037143,1.099597 
	C171.558578,1.099597 342.117249,1.099597 512.837952,1.099597 
	C512.837952,171.666550 512.837952,342.333252 512.837952,513.000000 
	C444.132782,513.000000 375.316376,513.000000 306.000000,513.000000 
M478.536774,408.971558 
	C479.358032,400.857330 480.877106,392.744507 480.893250,384.628693 
	C481.065765,297.806213 480.970032,210.983246 481.034058,124.160469 
	C481.043457,111.423233 477.812836,99.503014 472.537140,88.110458 
	C464.090179,69.869644 451.051605,55.490471 433.728882,45.463478 
	C420.630310,37.881569 406.418121,33.008068 390.969604,33.005795 
	C301.980377,32.992695 212.991135,32.984348 124.001945,33.042675 
	C119.423180,33.045677 114.717690,33.112408 110.287361,34.109711 
	C85.490479,39.691711 65.070641,52.103920 50.269722,73.190887 
	C38.557350,89.877571 32.844261,108.170708 32.899406,128.691940 
	C33.134514,216.180710 32.985123,303.670471 33.042812,391.159851 
	C33.045612,395.405304 33.169918,399.766479 34.104748,403.876556 
	C39.786171,428.855377 52.407303,449.416168 73.691467,464.151489 
	C89.952057,475.408936 107.843109,481.140289 127.853935,481.092072 
	C215.842773,480.879974 303.832397,481.014252 391.821716,480.956970 
	C395.900482,480.954315 400.092285,480.806580 404.038940,479.893982 
	C428.989990,474.124420 449.519348,461.452087 464.261383,440.191193 
	C470.709534,430.891754 475.890930,420.944641 478.536774,408.971558 
z"/>
<path fill="#FFFFFF" opacity="1.000000" stroke="none" 
	d="
M478.289825,409.320068 
	C475.890930,420.944641 470.709534,430.891754 464.261383,440.191193 
	C449.519348,461.452087 428.989990,474.124420 404.038940,479.893982 
	C400.092285,480.806580 395.900482,480.954315 391.821716,480.956970 
	C303.832397,481.014252 215.842773,480.879974 127.853935,481.092072 
	C107.843109,481.140289 89.952057,475.408936 73.691467,464.151489 
	C52.407303,449.416168 39.786171,428.855377 34.104748,403.876556 
	C33.169918,399.766479 33.045612,395.405304 33.042812,391.159851 
	C32.985123,303.670471 33.134514,216.180710 32.899406,128.691940 
	C32.844261,108.170708 38.557350,89.877571 50.269722,73.190887 
	C65.070641,52.103920 85.490479,39.691711 110.287361,34.109711 
	C114.717690,33.112408 119.423180,33.045677 124.001945,33.042675 
	C212.991135,32.984348 301.980377,32.992695 390.969604,33.005795 
	C406.418121,33.008068 420.630310,37.881569 433.728882,45.463478 
	C451.051605,55.490471 464.090179,69.869644 472.537140,88.110458 
	C477.812836,99.503014 481.043457,111.423233 481.034058,124.160469 
	C480.970032,210.983246 481.065765,297.806213 480.893250,384.628693 
	C480.877106,392.744507 479.358032,400.857330 478.289825,409.320068 
M333.206421,271.500122 
	C333.206421,217.102142 333.206421,162.704163 333.206421,108.039474 
	C321.957428,108.039474 311.316833,107.936058 300.683411,108.165176 
	C299.292389,108.195152 297.494934,109.634026 296.630310,110.920692 
	C249.389603,181.219254 202.225601,251.569351 155.084320,321.934662 
	C154.280304,323.134766 153.351852,324.575012 153.325577,325.919678 
	C153.163620,334.212463 153.244293,342.510010 153.244293,351.375610 
	C203.690872,351.375610 253.726425,351.375610 304.156616,351.375610 
	C304.156616,369.867249 304.156616,387.785828 304.156616,405.736816 
	C313.980927,405.736816 323.404510,405.736816 333.288818,405.736816 
	C333.288818,387.623199 333.288818,369.727661 333.288818,351.275635 
	C342.629181,351.275635 351.523865,351.275635 360.448639,351.275635 
	C360.448639,342.139771 360.448639,333.573395 360.448639,324.481323 
	C351.224152,324.481323 342.316223,324.481323 333.206421,324.481323 
	C333.206421,306.799988 333.206421,289.650085 333.206421,271.500122 
z"/>
<path fill="#010101" opacity="1.000000" stroke="none" 
	d="
M333.206421,272.000153 
	C333.206421,289.650085 333.206421,306.799988 333.206421,324.481323 
	C342.316223,324.481323 351.224152,324.481323 360.448639,324.481323 
	C360.448639,333.573395 360.448639,342.139771 360.448639,351.275635 
	C351.523865,351.275635 342.629181,351.275635 333.288818,351.275635 
	C333.288818,369.727661 333.288818,387.623199 333.288818,405.736816 
	C323.404510,405.736816 313.980927,405.736816 304.156616,405.736816 
	C304.156616,387.785828 304.156616,369.867249 304.156616,351.375610 
	C253.726425,351.375610 203.690872,351.375610 153.244293,351.375610 
	C153.244293,342.510010 153.163620,334.212463 153.325577,325.919678 
	C153.351852,324.575012 154.280304,323.134766 155.084320,321.934662 
	C202.225601,251.569351 249.389603,181.219254 296.630310,110.920692 
	C297.494934,109.634026 299.292389,108.195152 300.683411,108.165176 
	C311.316833,107.936058 321.957428,108.039474 333.206421,108.039474 
	C333.206421,162.704163 333.206421,217.102142 333.206421,272.000153 
M301.832825,152.189758 
	C263.774170,209.464645 225.715500,266.739532 187.351303,324.474213 
	C226.825012,324.474213 265.236359,324.474213 303.574463,324.474213 
	C303.574463,266.258514 303.574463,208.312851 303.574463,149.857635 
	C302.839386,150.757721 302.523163,151.144928 301.832825,152.189758 
z"/>
<path fill="#FDFDFD" opacity="1.000000" stroke="none" 
	d="
M302.019897,151.860962 
	C302.523163,151.144928 302.839386,150.757721 303.574463,149.857635 
	C303.574463,208.312851 303.574463,266.258514 303.574463,324.474213 
	C265.236359,324.474213 226.825012,324.474213 187.351303,324.474213 
	C225.715500,266.739532 263.774170,209.464645 302.019897,151.860962 
z"/>
</svg>