<svg version="1.1" id="Layer_1" xmlns="http://www.w3.org/2000/svg" xmlns:xlink="http://www.w3.org/1999/xlink" x="0px" y="0px"
	 width="100%" viewBox="0 0 512 512" enable-background="new 0 0 512 512" xml:space="preserve">
<path fill="#000000" opacity="1.000000" stroke="none" 
	d="
M513.000000,316.000000 
	C513.000000,381.651642 513.000000,447.303253 513.000000,512.977417 
	C342.387421,512.977417 171.774857,512.977417 1.081139,512.977417 
	C1.081139,342.426514 1.081139,171.852997 1.081139,1.139732 
	C171.666595,1.139732 342.333282,1.139732 513.000000,1.139732 
	C513.000000,52.091465 513.000000,103.079697 512.751099,154.327637 
	C508.071381,152.005035 504.049896,152.895767 500.133392,157.865479 
	C496.528442,162.439880 492.644409,166.982803 490.068298,172.132401 
	C486.766693,178.732346 481.915527,184.885300 481.890686,192.807724 
	C481.845734,207.140091 481.852570,221.472656 481.858337,235.805130 
	C481.859070,237.633484 481.582764,239.702621 482.775452,241.140335 
	C487.392822,246.706467 488.773376,253.737778 491.498566,260.128998 
	C496.063416,270.834686 500.952393,281.404449 503.639557,292.878601 
	C506.511536,305.142059 507.573212,317.524750 508.050537,330.029419 
	C508.139069,332.348541 507.525330,335.122223 510.458649,336.514008 
	C512.623108,334.937042 511.825012,332.759796 511.999664,330.888245 
	C512.461853,325.935638 511.464966,320.884155 513.000000,316.000000 
M178.499817,480.624359 
	C249.149155,480.623016 319.798492,480.622345 390.447845,480.617004 
	C392.446686,480.616852 394.477722,480.790253 396.439514,480.506958 
	C423.121063,476.654053 445.179504,464.611481 461.634521,443.045166 
	C472.676361,428.573547 480.329773,412.131195 480.381195,393.985321 
	C480.639862,302.680145 481.438416,211.372726 480.627014,120.066086 
	C480.618134,119.066803 480.677856,118.052521 480.532227,117.070953 
	C476.599792,90.565163 464.528320,68.667313 443.073395,52.409748 
	C426.585999,39.916321 407.973236,33.311207 387.057404,33.332478 
	C299.245422,33.421783 211.433258,33.381760 123.621178,33.394543 
	C121.455948,33.394855 119.254486,33.214451 117.131035,33.529827 
	C91.017693,37.408218 69.255638,49.104511 53.038197,70.161301 
	C40.197861,86.833237 33.312000,105.653999 33.335991,126.960632 
	C33.435055,214.939255 33.375546,302.918030 33.384373,390.896759 
	C33.384590,393.059174 33.283821,395.253845 33.598213,397.379028 
	C37.029865,420.575745 47.045433,440.442017 64.517982,456.152496 
	C81.367287,471.302521 101.067184,480.207855 124.013611,480.569580 
	C141.838196,480.850586 159.670761,480.624756 178.499817,480.624359 
z"/>
<path fill="#000000" opacity="1.000000" stroke="none" 
	d="
M207.458008,167.275436 
	C205.230316,182.356567 201.636200,196.809402 200.291641,211.525070 
	C203.362457,212.373505 204.997559,210.977768 206.770477,210.196198 
	C244.418243,193.599533 279.977173,196.908569 312.176666,222.883163 
	C334.377686,240.792160 345.678558,265.044586 348.406250,293.369232 
	C351.144653,321.805084 344.504120,347.826202 326.889435,370.300507 
	C302.967010,400.822723 270.950928,413.269836 232.828598,407.635559 
	C186.872696,400.843506 161.823593,371.054352 149.727219,328.291595 
	C148.106827,322.563232 146.440628,316.775757 146.664780,310.066772 
	C152.116867,309.113434 157.568893,309.669373 162.960342,309.622650 
	C175.048248,309.517883 175.058380,309.582947 177.914871,321.096924 
	C183.044449,341.773193 193.381241,359.042358 211.600830,370.684082 
	C243.809784,391.264557 287.138519,380.644531 306.653229,346.797150 
	C323.139465,318.202423 323.332214,288.701813 305.952515,260.477325 
	C282.957428,223.133392 232.225555,217.126923 199.800232,247.129684 
	C195.769806,250.858978 191.963654,254.849243 188.267899,258.913483 
	C186.545349,260.807770 184.976395,261.292084 182.606873,260.319946 
	C177.061218,258.044708 171.461624,255.895309 165.840652,253.811600 
	C163.138275,252.809830 162.461395,251.091370 162.963089,248.358658 
	C169.385284,213.376556 175.743866,178.382767 182.127441,143.393555 
	C184.185608,132.112579 186.384521,120.855499 188.273468,109.546471 
	C188.859940,106.035316 190.478256,104.811752 193.902603,104.816597 
	C235.566330,104.875641 277.230194,104.878204 318.893921,104.822182 
	C322.711243,104.817047 324.351593,106.341362 324.264526,110.173393 
	C324.135895,115.836548 324.077881,121.511589 324.303650,127.169044 
	C324.464539,131.199982 322.972076,133.019653 318.861237,132.877625 
	C314.867432,132.739609 310.863464,132.917664 306.863892,132.920731 
	C278.199158,132.942764 249.534393,132.944885 220.869690,132.978897 
	C213.710403,132.987381 213.527222,133.262451 212.303848,140.342041 
	C210.775040,149.189209 209.113571,158.013428 207.458008,167.275436 
z"/>
</svg>