<svg version="1.1" id="Layer_1" xmlns="http://www.w3.org/2000/svg" xmlns:xlink="http://www.w3.org/1999/xlink" x="0px" y="0px"
	 width="100%" viewBox="0 0 512 512" enable-background="new 0 0 512 512" xml:space="preserve">
<path fill="#000000" opacity="1.000000" stroke="none" 
	d="
M513.000000,278.000000 
	C513.000000,356.315704 513.000000,434.631439 513.000000,512.973572 
	C342.389343,512.973572 171.778687,512.973572 1.084018,512.973572 
	C1.084018,342.427765 1.084018,171.855484 1.084018,1.141605 
	C171.666580,1.141605 342.333282,1.141605 513.000000,1.141605 
	C513.000000,50.423649 513.000000,99.745789 512.752075,149.307678 
	C507.777954,146.623001 504.037750,147.450165 499.760712,152.780212 
	C495.588470,157.979645 491.437042,163.342606 488.759338,169.410263 
	C486.511841,174.503052 481.775269,178.398804 481.836029,184.634949 
	C481.974060,198.794052 481.844696,212.955673 481.855286,227.116241 
	C481.856659,228.935059 481.786255,230.826492 483.134766,232.325729 
	C487.521851,237.203278 489.898407,243.328995 493.297119,248.818359 
	C498.870728,257.820496 500.847382,268.361877 505.119690,277.938232 
	C505.992249,279.894043 506.851440,282.193207 509.451843,282.260132 
	C512.168823,282.330048 511.901703,279.507812 513.000000,278.000000 
M105.953773,478.345154 
	C111.488922,479.382935 116.960587,480.660889 122.672974,480.657715 
	C212.325363,480.608124 301.977783,480.621277 391.630219,480.615082 
	C393.295715,480.614960 394.988068,480.737457 396.622681,480.496246 
	C423.098175,476.588623 445.041779,464.685059 461.419861,443.267151 
	C472.696686,428.520233 480.388031,411.829285 480.411011,393.277740 
	C480.523682,302.297974 481.483856,211.317383 480.627289,120.337074 
	C480.616302,119.171631 480.677521,117.988457 480.503845,116.844093 
	C476.512329,90.549103 464.558838,68.782310 443.270172,52.581310 
	C426.647095,39.930939 407.898712,33.309517 386.808655,33.332005 
	C298.822723,33.425827 210.836655,33.382778 122.850639,33.402737 
	C120.689705,33.403229 118.497818,33.346283 116.372643,33.664871 
	C93.194450,37.139610 73.307274,47.067245 57.634613,64.629799 
	C42.649120,81.422325 33.546314,101.035637 33.480759,123.754410 
	C33.226864,211.739716 33.374710,299.726166 33.383392,387.712189 
	C33.383816,392.026306 33.620663,396.289886 34.228600,400.609985 
	C39.317757,436.774445 69.622604,469.985840 105.953773,478.345154 
z"/>
<path fill="#000000" opacity="1.000000" stroke="none" 
	d="
M212.698700,181.735916 
	C229.089981,157.397263 245.340683,133.398193 261.398956,109.271049 
	C263.619171,105.935242 266.134766,104.671951 270.029663,104.755287 
	C279.298126,104.953575 288.573669,104.819168 297.846375,104.819168 
	C298.176392,105.294281 298.506378,105.769402 298.836395,106.244514 
	C276.515259,139.303070 254.194092,172.361633 231.111160,206.548416 
	C238.703171,205.206207 244.204239,202.337784 250.283798,201.450623 
	C279.392975,197.202927 304.810333,205.209015 326.190521,225.027924 
	C346.529205,243.881439 356.738495,267.733459 358.504028,295.377472 
	C360.182983,321.666626 354.724976,346.086426 339.390442,367.713409 
	C321.769775,392.564575 297.447266,406.034180 267.064697,408.449158 
	C236.447968,410.882721 209.275009,402.544830 186.749939,381.400757 
	C167.876907,363.684814 158.391373,341.322601 155.511734,315.668091 
	C151.804031,282.636414 164.122513,254.672134 181.680023,228.162552 
	C191.890686,212.745804 202.220840,197.408188 212.698700,181.735916 
M206.325607,249.820724 
	C182.043228,275.406128 180.042465,316.416748 196.485489,345.640900 
	C219.391769,386.352142 276.953247,393.573822 308.251434,359.222534 
	C325.978363,339.766357 330.971619,316.081146 327.283173,290.825989 
	C323.154053,262.553253 308.541138,241.152679 280.489899,232.008850 
	C252.886688,223.011063 227.920746,228.851242 206.325607,249.820724 
z"/>
</svg>